<?xml version="1.0" standalone="no"?>

<!DOCTYPE svg PUBLIC "-//W3C//DTD SVG 20010904//EN"

 "http://www.w3.org/TR/2001/REC-SVG-20010904/DTD/svg10.dtd">

<svg version="1.0" xmlns="http://www.w3.org/2000/svg"

 width="1039.000000pt" height="1037.000000pt" viewBox="0 0 1039.000000 1037.000000"

 preserveAspectRatio="xMidYMid meet">

<path fill="#060607" stroke="none" d="
M13 1023

C13 1022 15 1019 17 1016

C19 1013 23 1008 25 1004

C27 1000 31 995 33 993

C34 991 37 987 38 985

C39 982 42 978 44 975

C46 973 48 969 49 968

C50 965 68 939 70 938

C70 937 71 936 71 935

C71 935 73 932 75 930

C76 927 78 925 78 924

L78 923

L79 923

C79 923 83 918 87 912

C91 907 96 899 99 896

C101 893 106 887 109 882

C112 878 118 871 122 867

C151 839 149 842 148 834

C147 824 148 763 149 758

C150 755 151 750 153 746

C155 742 157 736 157 734

C159 726 165 713 172 698

C176 691 181 679 185 672

C188 665 191 658 191 658

C192 657 192 656 192 655

C192 653 208 621 216 608

C217 606 219 603 221 600

C223 597 227 589 230 583

C241 561 252 545 263 533

C271 524 295 503 303 496

C308 493 318 484 325 477

C338 465 345 460 380 436

C386 431 401 423 423 412

C462 393 477 385 487 378

C491 375 502 367 512 361

C530 348 546 335 563 318

C573 309 574 306 578 299

C580 294 583 287 585 283

C588 278 590 272 591 268

C592 264 594 260 595 257

C597 253 597 252 596 249

C594 241 586 226 583 222

C576 216 550 205 542 205

C536 205 534 196 539 192

C541 191 542 191 546 192

C558 194 561 195 572 200

C577 202 582 205 585 206

C591 209 597 215 602 227

C605 232 608 239 608 241

C610 247 610 257 608 262

C608 264 605 270 603 275

C599 287 588 310 584 316

C577 327 544 356 523 370

C515 375 504 383 499 387

C485 397 479 400 436 422

C414 432 394 443 390 446

C382 451 369 461 356 470

C351 473 342 481 336 487

C330 492 321 500 317 503

C298 518 273 543 264 554

C257 563 248 577 242 590

C240 595 236 603 232 609

C226 619 214 640 214 641

C214 641 212 646 209 652

C206 658 201 669 199 675

C196 681 190 694 185 704

C176 723 175 725 170 739

C168 744 166 750 166 752

C162 760 162 762 161 795

C161 816 161 829 162 829

L163 830

L174 822

C212 795 218 790 224 784

C228 781 234 776 239 772

C252 761 290 724 298 714

C302 709 309 701 314 696

C319 691 327 683 331 678

C342 667 473 534 483 524

C487 520 495 513 500 508

C505 502 521 487 534 473

C558 449 601 405 623 383

C629 377 640 365 648 358

C655 350 663 342 665 340

C667 338 677 329 687 319

C696 309 708 298 712 293

C715 289 720 284 722 282

C724 280 732 273 739 266

C763 241 790 214 793 212

C794 211 795 210 795 210

C795 209 802 201 811 192

C820 184 828 175 830 173

C833 169 833 169 832 166

C831 164 830 163 829 163

C829 163 818 153 806 141

C788 124 784 119 784 117

C784 114 792 106 795 106

C796 106 807 116 821 130

C839 148 846 154 848 154

C850 154 859 149 859 148

C859 147 861 146 863 145

C866 144 875 135 891 120

C903 108 917 95 921 91

C925 87 929 83 930 82

L930 80

L933 80

C935 80 936 79 942 72

C944 69 947 66 949 66

L951 65

L951 64

C951 63 956 58 962 52

C974 40 981 30 982 22

L983 18

L993 17

C1004 17 1007 18 1012 24

C1017 29 1018 32 1018 41

C1018 51 1018 51 1012 53

C1010 53 1006 55 1003 56

C1000 58 996 60 995 61

C994 61 990 64 988 67

C985 71 977 79 970 86

C963 93 957 100 956 102

C955 104 953 106 952 107

C950 108 941 118 939 122

C937 125 934 128 932 128

C931 128 927 131 924 135

C920 139 916 143 915 145

C914 146 913 147 913 147

C913 148 908 153 902 160

C895 166 890 172 890 173

C890 174 889 176 887 178

C884 180 881 186 881 188

C881 189 891 199 903 212

C917 225 926 235 927 237

C927 239 926 240 923 244

C915 251 916 251 890 225

L867 202

L862 207

C839 229 712 354 702 365

C696 371 689 378 685 381

C670 396 499 565 431 633

C404 660 381 682 379 684

C378 685 375 688 373 690

C372 692 369 695 367 696

C365 697 363 698 363 699

C363 700 328 733 322 737

C320 739 308 751 295 764

C268 791 266 792 263 797

C261 800 259 802 257 803

C256 804 255 806 255 806

C255 807 253 809 250 812

C248 814 244 819 243 821

C241 823 233 834 225 845

C217 856 208 868 206 871

C204 875 198 881 194 886

C189 890 186 894 186 895

C186 896 187 897 188 897

C190 898 192 900 193 902

C196 907 203 912 210 914

C214 916 217 916 225 916

C231 915 237 915 238 914

C242 913 250 911 257 909

C260 908 271 908 282 908

C302 908 303 908 322 913

C325 913 329 914 332 914

C334 915 337 916 339 917

C342 919 343 920 347 921

C348 922 351 924 352 926

C355 930 355 931 355 943

C355 949 354 955 354 956

L353 958

L358 962

C361 964 364 967 365 969

C366 971 365 989 364 996

C363 1000 362 1003 361 1005

C359 1006 357 1010 356 1012

C351 1019 347 1023 343 1023

C341 1023 339 1022 337 1021

C334 1020 334 1019 334 1016

C334 1012 334 1011 337 1009

C343 1006 352 991 352 983

C352 977 350 973 347 971

L345 970

L343 972

C343 972 342 974 342 974

C341 976 333 980 329 981

C327 981 323 982 321 984

C316 986 315 987 286 987

C259 987 255 987 249 986

C243 984 242 982 241 974

C240 971 241 968 242 965

C243 963 244 960 244 959

C246 954 252 948 261 946

C269 943 269 943 296 944

C320 945 323 945 327 947

C329 948 332 950 335 951

L339 953

L340 951

C341 949 342 946 342 943

C342 939 342 938 339 935

C336 932 330 929 326 928

C324 927 319 926 315 925

C302 921 297 921 280 921

C263 922 258 922 250 926

C245 928 242 928 226 929

C206 929 207 929 193 922

C185 919 185 919 178 907

L177 905

L175 906

C174 906 172 908 170 911

C162 920 153 928 152 928

C151 928 148 930 146 932

C141 937 123 950 122 950

C122 950 121 951 120 951

C119 953 111 959 110 959

C110 959 106 962 101 965

C96 969 91 972 89 973

L85 975

L85 976

L85 977

L84 977

C83 977 80 979 76 982

C70 986 55 997 55 997

C54 997 32 1012 22 1019

C18 1022 14 1024 14 1024

L13 1024

L13 1023

Z

M107 933

C107 934 109 933 111 931

C113 930 115 929 116 929

C116 929 118 927 120 926

L123 922

L123 923

L124 923

L128 919

L132 916

L131 914

L131 913

L133 913

C135 913 137 912 140 910

C144 907 145 906 144 904

L144 902

L145 903

L147 904

L151 899

L156 894

L155 893

C155 892 154 891 154 891

L154 890

L156 891

L157 892

L158 891

C158 891 160 888 162 886

L166 881

L165 880

C164 880 163 880 162 880

C162 880 160 880 159 879

C158 878 157 877 157 875

C157 870 156 870 152 872

L149 874

L150 875

L150 877

L150 876

L149 875

L147 876

L146 877

L147 878

L148 880

L146 882

L144 883

L144 882

L145 881

L143 880

L142 880

L135 888

C129 894 127 897 128 898

L128 899

L127 899

L125 898

L121 903

C119 906 116 909 115 910

C114 911 113 913 113 914

L113 915

L111 915

L110 916

L110 918

L111 919

L110 919

L109 918

L107 920

C106 921 105 923 105 923

C105 924 105 925 105 926

L105 928

L104 928

L103 927

L101 930

L99 934

L100 935

L101 936

L104 934

C105 934 106 933 107 933

Z

M182 862

C183 860 185 856 187 853

C190 849 191 846 191 846

L190 844

L179 851

L168 858

L169 862

C170 864 171 867 172 868

L174 871

L177 868

C178 866 181 863 182 862

Z

M635 1005

C639 1000 643 989 643 985

C643 983 642 980 641 977

C640 972 638 970 632 964

C627 959 622 955 618 953

L612 950

L621 944

C632 937 633 936 633 932

C633 923 618 920 609 928

C607 930 605 932 604 935

C604 938 603 953 603 970

C603 998 603 1000 604 1002

L606 1004

L601 1004

C599 1004 594 1004 591 1005

L587 1005

L588 1004

C591 1001 592 995 592 964

C592 934 592 934 589 932

L587 930

L588 929

C599 922 607 919 620 919

C637 919 640 921 645 931

L648 936

L643 937

C637 939 626 945 626 946

C626 946 628 948 631 949

C641 954 646 960 648 972

C650 980 649 987 645 995

C643 1000 635 1010 633 1010

L632 1010

L635 1005

Z

M940 1005

C944 1000 948 989 948 985

C948 983 947 980 946 977

C945 972 943 970 937 964

C932 959 927 955 923 953

L917 950

L926 944

C937 937 938 936 938 932

C938 923 923 920 914 928

C912 930 910 932 909 935

C909 938 908 953 908 970

C908 998 908 1000 909 1002

L911 1004

L906 1004

C904 1004 899 1004 896 1005

L892 1005

L893 1004

C896 1001 897 995 897 964

C897 934 897 934 894 932

L892 930

L893 929

C904 922 912 919 925 919

C942 919 945 921 950 931

L953 936

L948 937

C942 939 931 945 931 946

C931 946 933 948 936 949

C946 954 951 960 953 972

C955 980 954 987 950 995

C948 1000 940 1010 938 1010

L937 1010

L940 1005

Z

M684 1004

C671 989 664 971 661 942

C661 935 660 934 658 932

L656 930

L657 929

C660 927 671 922 676 920

C684 918 703 919 711 922

C716 923 722 927 723 929

L724 930

L722 932

C720 933 720 935 719 945

C718 951 718 958 717 959

C713 977 704 994 694 1003

C691 1006 689 1008 689 1008

C688 1008 686 1006 684 1004

Z

M696 996

C702 987 706 972 706 949

C706 936 706 935 704 931

C701 925 697 923 690 923

C684 923 679 925 676 929

C674 932 673 934 673 948

C673 957 673 967 674 971

C675 980 680 992 685 998

L688 1003

L690 1002

C692 1001 694 998 696 996

Z

M424 1006

C416 1004 403 997 397 991

C389 985 385 979 380 969

C374 959 372 950 371 938

C371 927 372 922 378 908

C380 903 382 898 382 898

C381 897 380 895 378 894

L375 893

L407 893

C425 893 441 893 441 892

L443 892

L443 893

C443 894 441 898 439 903

L435 911

L433 907

C429 900 419 895 412 898

C407 899 399 908 395 915

L392 921

L393 922

C394 923 399 923 410 923

L425 923

L423 926

C422 927 420 929 420 930

L418 932

L416 930

C414 929 412 929 403 929

C389 929 389 929 389 941

C389 967 404 992 425 1003

L433 1007

L431 1007

C430 1007 427 1006 424 1006

Z

M871 1006

C858 1001 846 991 839 978

C835 969 834 968 833 956

C832 947 833 941 838 930

L841 924

L839 922

L837 920

L859 920

C871 920 882 920 884 919

L888 918

L888 919

C888 919 887 922 885 926

L882 933

L880 930

C875 922 866 920 859 926

C855 929 849 939 849 940

L850 942

L862 942

L874 943

L871 946

L868 950

L867 948

C866 947 863 947 858 947

C850 947 850 947 848 949

C846 951 846 952 846 960

C847 970 850 978 856 987

C861 995 867 1001 874 1004

L880 1007

L878 1007

C876 1007 874 1006 871 1006

Z

M732 1002

C734 999 734 999 734 962

C734 929 734 925 733 923

L731 920

L741 920

L751 920

L750 922

C747 926 747 929 747 965

C747 998 747 1001 749 1003

L750 1005

L740 1005

L730 1005

L732 1002

Z

M979 1002

C981 999 982 998 982 978

C982 957 982 957 975 944

C972 937 967 929 965 927

L961 923

L962 923

C963 922 966 921 969 920

L975 917

L983 932

C987 940 991 948 992 949

L994 950

L996 949

C999 946 1004 935 1004 932

C1004 930 1003 928 1001 925

L997 922

L1001 920

C1004 918 1007 917 1007 917

L1009 917

L1010 920

C1014 929 1010 939 1000 949

C994 956 994 956 994 978

C994 1000 994 1000 996 1003

L999 1005

L988 1005

L977 1005

L979 1002

Z

M452 1002

C455 1000 455 998 456 963

C456 930 456 930 453 927

L450 924

L457 921

C460 919 463 918 464 918

C465 918 469 924 474 932

C479 939 483 945 484 945

C485 945 493 934 497 926

C501 920 501 920 508 920

L516 920

L514 924

C512 927 512 931 511 963

C511 993 511 998 512 1001

L514 1004

L504 1004

L494 1004

L496 1002

C499 1000 499 998 499 981

C500 955 500 936 499 936

L498 935

L489 948

C484 955 479 961 479 961

C479 961 475 955 470 948

L462 935

L461 935

C460 936 459 947 459 973

C459 999 459 999 461 1002

L463 1004

L457 1004

L451 1004

L452 1002

Z

M526 1002

C527 1000 528 998 528 967

C528 936 527 935 525 932

L523 929

L529 926

C537 922 548 919 558 919

C569 919 573 921 577 929

L580 934

L573 938

C569 940 566 942 565 942

L564 944

L569 948

C576 953 579 958 581 967

C583 976 582 984 578 990

C574 998 558 1003 537 1004

L524 1004

L526 1002

Z

M557 997

C567 995 576 987 576 979

C576 971 565 959 553 953

C550 951 547 950 547 949

C547 949 550 947 554 944

C557 941 562 938 564 936

L567 932

L566 930

C562 922 548 924 542 932

C540 935 540 937 539 966

C539 988 539 996 540 998

L541 1000

L546 999

C548 999 554 998 557 997

Z

M760 1002

C763 999 763 999 763 967

C763 934 763 934 760 932

L758 930

L759 929

C762 927 773 922 778 920

C786 918 805 919 813 922

C818 923 824 927 826 929

L826 930

L825 931

C824 932 824 935 826 941

C828 954 825 968 818 979

C813 986 808 990 799 996

C788 1002 780 1004 767 1004

L757 1004

L760 1002

Z

M786 999

C795 994 804 985 808 976

C817 957 815 935 802 926

C799 925 797 924 793 924

C785 924 780 926 778 931

C776 934 775 937 775 967

C775 985 775 1000 775 1001

L776 1002

L778 1002

C779 1002 783 1001 786 999

Z

M45 352

C38 345 35 339 31 331

C24 317 22 293 27 277

C27 274 31 266 36 259

C40 252 43 246 43 245

C43 244 39 240 37 240

L36 239

L69 239

L102 239

L100 242

C98 244 97 247 97 248

C96 253 95 291 95 319

C95 342 95 344 97 346

L99 349

L86 349

L73 349

L75 345

C79 341 79 332 79 301

L80 276

L65 276

L51 276

L51 275

C51 275 52 274 53 272

L54 268

L66 269

C77 269 78 269 79 267

C81 264 82 253 80 248

L79 246

L74 246

C62 248 51 259 43 278

C32 302 33 326 47 350

L52 358

L51 358

C51 358 48 355 45 352

Z

M281 354

C283 352 285 348 287 344

C291 336 291 328 288 321

C283 312 269 303 248 296

L238 293

L238 291

C239 290 241 287 243 284

C247 278 254 272 263 268

C268 266 270 266 278 266

C283 266 289 266 292 267

L298 269

L294 275

C292 278 290 281 289 281

C289 281 288 280 286 278

C283 274 277 272 270 272

C262 272 256 274 253 277

L251 279

L258 283

C261 285 268 289 273 291

C277 294 283 297 285 299

C296 309 300 327 294 340

C291 346 284 354 281 356

L279 357

L281 354

Z

M156 351

C160 346 164 335 164 331

C164 329 163 326 162 323

C161 318 159 316 153 310

C148 305 143 301 139 299

L133 296

L142 290

C153 283 154 282 154 278

C154 269 139 266 130 274

C128 276 126 278 125 281

C125 284 124 299 124 316

C124 344 124 346 125 348

L127 350

L122 350

C120 350 115 350 112 351

L108 351

L109 350

C112 347 113 341 113 310

C113 280 113 280 110 278

L108 276

L109 275

C120 268 128 265 141 265

C158 265 161 267 166 277

L169 282

L164 283

C158 285 147 291 147 292

C147 292 149 294 152 295

C162 300 167 306 169 318

C171 326 170 333 166 341

C164 346 156 356 154 356

L153 356

L156 351

Z

M196 347

C198 345 198 343 198 312

C198 283 198 280 197 278

L195 275

L197 274

C198 274 201 273 202 272

L205 271

L205 270

C204 269 202 269 199 269

C193 269 185 273 180 278

L177 283

L177 280

C178 279 178 275 179 273

C179 270 179 267 180 266

L180 264

L181 265

C182 266 189 266 203 266

C220 266 225 266 227 265

L230 263

L230 268

C231 270 232 275 232 278

C233 281 234 284 234 284

L233 284

L230 279

C226 274 219 269 215 269

C211 269 211 270 210 309

C210 341 210 346 211 348

L213 350

L203 350

L194 350

L196 347

Z

M432 203

C427 197 422 187 420 178

C418 170 418 153 419 146

C420 143 423 137 426 131

C429 126 432 122 432 121

C432 121 431 120 430 119

L429 117

L452 117

L476 117

L474 120

C473 123 473 128 472 160

C472 195 472 197 474 199

L475 201

L465 201

L455 201

L457 198

C459 195 459 193 460 171

C461 158 461 146 461 146

L460 144

L449 144

L438 145

L440 142

L441 139

L449 140

C460 141 461 140 461 131

C461 128 461 124 460 123

L459 121

L456 122

C447 124 439 132 433 144

C424 163 424 179 434 199

L438 207

L438 208

L437 208

L432 203

Z

M338 202

C342 197 346 186 346 182

C346 180 345 177 344 174

C343 169 341 167 335 161

C330 156 325 152 321 150

L315 147

L324 141

C335 134 336 133 336 129

C336 120 321 117 312 125

C310 127 308 129 307 132

C307 135 306 150 306 167

C306 195 306 197 307 199

L309 201

L304 201

C302 201 297 201 294 202

L290 202

L291 201

C294 198 295 192 295 161

C295 131 295 131 292 129

L290 127

L291 126

C302 119 310 116 323 116

C340 116 343 118 348 128

L351 133

L346 134

C340 136 329 142 329 143

C329 143 331 145 334 146

C344 151 349 157 351 169

C353 177 352 184 348 192

C346 197 338 207 336 207

L335 207

L338 202

Z

M522 203

C520 201 518 201 501 201

L483 201

L485 199

C488 195 489 189 489 156

C489 125 489 121 485 118

L484 117

L495 117

L506 117

L504 120

C502 123 501 124 501 153

C500 170 500 185 500 188

C501 190 502 193 503 195

C506 197 507 197 512 197

C519 197 522 196 529 189

L534 185

L534 186

C534 186 532 191 529 196

L525 205

L522 203

Z

M77 203

C69 201 56 194 50 188

C42 182 38 176 33 166

C27 156 25 147 24 135

C24 124 25 119 31 105

C33 100 35 95 35 95

C34 94 33 92 31 91

L28 90

L60 90

C78 90 94 90 94 89

L96 89

L96 90

C96 91 94 95 92 100

L88 108

L86 104

C82 97 72 92 65 95

C60 96 52 105 48 112

L45 118

L46 119

C47 120 52 120 63 120

L78 120

L76 123

C75 124 73 126 73 127

L71 129

L69 127

C67 126 65 126 56 126

C42 126 42 126 42 138

C42 164 57 189 78 200

L86 204

L84 204

C83 204 80 203 77 203

Z

M268 203

C255 198 243 188 236 175

C232 166 231 165 230 153

C229 144 230 138 235 127

L238 121

L236 119

L234 117

L256 117

C268 117 279 117 281 116

L285 115

L285 116

C285 116 284 119 282 123

L279 130

L277 127

C272 119 263 117 256 123

C252 126 246 136 246 137

L247 139

L259 139

L271 140

L268 143

L265 147

L264 145

C263 144 260 144 255 144

C247 144 247 144 245 146

C243 148 243 149 243 157

C244 167 247 175 253 184

C258 192 264 198 271 201

L277 204

L275 204

C273 204 271 203 268 203

Z

M396 203

C383 198 371 188 364 175

C360 166 359 165 358 153

C357 144 358 138 363 127

L366 121

L364 119

L362 117

L384 117

C396 117 407 117 409 116

L413 115

L413 116

C413 116 412 119 410 123

L407 130

L405 127

C400 119 391 117 384 123

C380 126 374 136 374 137

L375 139

L387 139

L399 140

L396 143

L393 147

L392 145

C391 144 388 144 383 144

C375 144 375 144 373 146

C371 148 371 149 371 157

C372 167 375 175 381 184

C386 192 392 198 399 201

L405 204

L403 204

C401 204 399 203 396 203

Z

M166 199

C169 197 169 197 169 159

C169 123 168 121 167 119

L165 117

L175 117

L185 117

L183 120

C182 122 182 126 182 131

L182 139

L194 139

L207 139

L206 131

C206 126 206 122 205 120

L203 117

L213 117

L223 117

L221 119

C220 121 219 124 219 157

C218 176 218 194 219 196

C219 197 220 200 221 200

L223 202

L213 202

L202 202

L204 199

C206 196 206 195 206 170

L206 145

L194 145

L182 145

L181 171

C181 197 181 197 183 200

L185 202

L175 202

L164 202

L166 199

Z

M121 198

C123 196 123 194 123 163

C123 134 123 131 122 129

L120 126

L122 125

C123 125 126 124 127 123

L130 122

L130 121

C129 120 127 120 124 120

C118 120 110 124 105 129

L102 134

L102 131

C103 130 103 126 104 124

C104 121 104 118 105 117

L105 115

L106 116

C107 117 114 117 128 117

C145 117 150 117 152 116

L155 114

L155 119

C156 121 157 126 157 129

C158 132 159 135 159 135

L158 135

L155 130

C151 125 144 120 140 120

C136 120 136 121 135 160

C135 192 135 197 136 199

L138 201

L128 201

L119 201

L121 198

Z

"/>

<path fill="#014b2b" stroke="none" d="
M13 1023

C13 1022 15 1019 17 1016

C19 1013 23 1008 25 1004

C27 1000 31 995 33 993

C34 991 37 987 38 985

C39 982 42 978 44 975

C46 973 48 969 49 968

C50 965 68 939 70 938

C70 937 71 936 71 935

C71 935 73 932 75 930

C76 927 78 925 78 924

L78 923

L79 923

C79 923 83 918 87 912

C91 907 96 899 99 896

C101 893 106 887 109 882

C112 878 118 871 122 867

C151 839 149 842 148 834

C147 824 148 763 149 758

C150 755 151 750 153 746

C155 742 157 736 157 734

C159 726 165 713 172 698

C176 691 181 679 185 672

C188 665 191 658 191 658

C192 657 192 656 192 655

C192 653 208 621 216 608

C217 606 219 603 221 600

C223 597 227 589 230 583

C241 561 252 545 263 533

C271 524 295 503 303 496

C308 493 318 484 325 477

C338 465 345 460 380 436

C386 431 401 423 423 412

C462 393 477 385 487 378

C491 375 502 367 512 361

C530 348 546 335 563 318

C573 309 574 306 578 299

C580 294 583 287 585 283

C588 278 590 272 591 268

C592 264 594 260 595 257

C597 253 597 252 596 249

C594 241 586 226 583 222

C576 216 550 205 542 205

C536 205 534 196 539 192

C541 191 542 191 546 192

C558 194 561 195 572 200

C577 202 582 205 585 206

C591 209 597 215 602 227

C605 232 608 239 608 241

C610 247 610 257 608 262

C608 264 605 270 603 275

C599 287 588 310 584 316

C577 327 544 356 523 370

C515 375 504 383 499 387

C485 397 479 400 436 422

C414 432 394 443 390 446

C382 451 369 461 356 470

C351 473 342 481 336 487

C330 492 321 500 317 503

C298 518 273 543 264 554

C257 563 248 577 242 590

C240 595 236 603 232 609

C226 619 214 640 214 641

C214 641 212 646 209 652

C206 658 201 669 199 675

C196 681 190 694 185 704

C176 723 175 725 170 739

C168 744 166 750 166 752

C162 760 162 762 161 795

C161 816 161 829 162 829

L163 830

L174 822

C212 795 218 790 224 784

C228 781 234 776 238 773

C242 769 254 758 265 747

L285 728

L286 729

L287 729

L273 744

L259 758

L258 757

L258 757

L247 767

C235 779 220 792 218 794

C217 794 213 797 209 801

C204 804 196 810 190 814

C184 818 176 824 172 827

C165 832 165 832 165 837

C165 840 165 842 166 842

C167 843 176 839 180 836

C181 835 183 834 184 834

C185 834 190 832 194 829

C199 825 202 823 203 823

C203 823 206 821 208 819

C219 811 221 810 223 810

C224 810 226 811 227 812

L228 814

L227 816

C227 816 221 824 215 833

C209 842 204 850 204 851

C204 852 203 854 202 855

C201 857 198 862 196 866

C192 873 190 876 165 901

C140 925 131 934 120 942

C119 943 115 947 111 949

C108 952 105 954 105 954

C104 954 95 959 84 966

C73 972 63 977 62 977

L61 976

L60 975

C60 974 60 972 61 972

C61 971 67 962 74 951

C80 940 86 930 88 929

C89 928 92 924 94 921

C96 918 99 914 101 912

C112 897 117 891 118 889

C119 888 127 880 135 871

C150 856 150 856 150 852

C149 850 149 848 148 848

L147 847

L132 862

C121 873 114 880 107 890

C101 898 93 909 89 915

C81 925 75 934 67 946

C64 950 60 956 58 959

C55 962 53 965 53 965

L53 966

L54 965

L56 965

L53 967

C52 968 50 971 49 974

C48 976 41 986 35 995

L23 1013

L23 1014

L24 1014

L28 1011

C40 1002 61 988 62 988

C62 988 65 986 68 984

C71 982 74 980 74 980

C75 980 77 978 79 977

C82 975 88 970 95 966

C117 951 155 921 164 913

C192 883 198 876 203 870

C211 860 213 857 216 853

C217 850 220 846 223 844

L227 839

L227 839

L226 839

L231 832

C235 827 237 824 237 823

C237 823 245 814 265 790

C270 784 276 778 279 775

L284 771

L284 773

C284 774 281 777 278 781

C268 790 266 793 263 797

C261 800 259 802 257 803

C256 804 255 806 255 806

C255 807 253 809 250 812

C248 814 244 819 243 821

C241 823 233 834 225 845

C217 856 208 868 206 871

C204 875 198 881 194 886

C189 890 186 894 186 895

C186 896 187 897 188 897

C190 898 192 900 193 902

C196 907 203 912 210 914

C214 916 217 916 225 916

C231 915 237 915 238 914

C242 913 250 911 257 909

C260 908 271 908 282 908

C302 908 303 908 322 913

C325 913 329 914 332 914

C334 915 337 916 339 917

C342 919 343 920 347 921

C348 922 351 924 352 926

C355 930 355 931 355 943

C355 949 354 955 354 956

L353 958

L358 962

C361 964 364 967 365 969

C366 971 365 989 364 996

C363 1000 362 1003 361 1005

C359 1006 357 1010 356 1012

C351 1019 347 1023 343 1023

C341 1023 339 1022 337 1021

C334 1020 334 1019 334 1016

C334 1012 334 1011 337 1009

C343 1006 352 991 352 983

C352 977 350 973 347 971

L345 970

L343 972

C343 972 342 974 342 974

C341 976 333 980 329 981

C327 981 323 982 321 984

C316 986 315 987 286 987

C259 987 255 987 249 986

C243 984 242 982 241 974

C240 971 241 968 242 965

C243 963 244 960 244 959

C246 954 252 948 261 946

C269 943 269 943 296 944

C320 945 323 945 327 947

C329 948 332 950 335 951

L339 953

L340 951

C341 949 342 946 342 943

C342 939 342 938 339 935

C336 932 330 929 326 928

C324 927 319 926 315 925

C302 921 297 921 280 921

C263 922 258 922 250 926

C245 928 242 928 226 929

C206 929 207 929 193 922

C185 919 185 919 178 907

L177 905

L175 906

C174 906 172 908 170 911

C162 920 153 928 152 928

C151 928 148 930 146 932

C141 937 123 950 122 950

C122 950 121 951 120 951

C119 953 111 959 110 959

C110 959 106 962 101 965

C96 969 91 972 89 973

L85 975

L85 976

L85 977

L84 977

C83 977 80 979 76 982

C70 986 55 997 55 997

C54 997 32 1012 22 1019

C18 1022 14 1024 14 1024

L13 1024

L13 1023

Z

M107 933

C107 934 109 933 111 931

C113 930 115 929 116 929

C116 929 118 927 120 926

L123 922

L123 923

L124 923

L128 919

L132 916

L131 914

L131 913

L133 913

C135 913 137 912 140 910

C144 907 145 906 144 904

L144 902

L145 903

L147 904

L151 899

L156 894

L155 893

C155 892 154 891 154 891

L154 890

L156 891

L157 892

L158 891

C158 891 160 888 162 886

L166 881

L165 880

C164 880 163 880 162 880

C162 880 160 880 159 879

C158 878 157 877 157 875

C157 870 156 870 152 872

L149 874

L150 875

L150 877

L150 876

L149 875

L147 876

L146 877

L147 878

L148 880

L146 882

L144 883

L144 882

L145 881

L143 880

L142 880

L135 888

C129 894 127 897 128 898

L128 899

L127 899

L125 898

L121 903

C119 906 116 909 115 910

C114 911 113 913 113 914

L113 915

L111 915

L110 916

L110 918

L111 919

L110 919

L109 918

L107 920

C106 921 105 923 105 923

C105 924 105 925 105 926

L105 928

L104 928

L103 927

L101 930

L99 934

L100 935

L101 936

L104 934

C105 934 106 933 107 933

Z

M179 867

C181 865 182 862 182 861

L182 859

L184 858

C186 858 191 850 191 847

C191 846 191 845 190 844

L189 844

L184 847

C181 849 176 853 173 855

L168 858

L169 862

C170 865 174 871 175 871

C176 871 177 869 179 867

Z

M333 727

L332 725

L340 718

C344 714 349 710 351 709

C355 706 355 706 351 704

C348 703 347 703 345 705

C343 707 338 708 336 706

C336 705 336 704 336 701

C337 699 337 696 337 693

L337 689

L335 689

L334 690

L551 473

C671 353 769 255 769 255

C772 255 773 257 774 260

L775 264

L775 260

L775 257

L776 257

C778 257 781 260 781 264

C781 267 775 273 595 453

L409 639

L410 640

L410 641

L621 431

C737 315 832 220 833 220

L835 220

L835 222

L836 224

L836 220

L836 216

L837 216

L838 216

L838 214

C837 213 840 210 847 203

L857 192

L850 185

L842 178

L832 187

C827 193 822 197 822 197

L821 197

L831 186

C837 181 842 176 842 176

C843 176 848 181 854 187

C859 193 865 198 867 198

C868 199 879 209 890 221

C902 232 912 242 913 242

C913 242 915 241 916 240

C917 238 919 237 920 237

L922 236

L923 237

L923 238

L922 238

L921 237

L922 238

L923 239

L924 238

L925 237

L903 214

C880 191 880 191 880 187

L880 182

L878 182

C876 182 872 179 870 176

L870 175

L873 177

C875 179 878 180 879 180

L881 180

L881 181

L882 183

L882 181

C882 180 884 178 886 176

L890 172

L890 173

C890 173 889 175 887 177

C884 180 881 186 881 188

C881 189 891 199 903 212

C917 225 926 235 927 237

C927 239 926 240 923 244

C915 251 916 251 890 225

L867 202

L862 207

C839 229 712 354 702 365

C696 371 689 378 685 381

C673 393 627 438 609 457

C599 467 590 475 588 476

L586 476

L586 478

C586 478 562 503 532 532

C503 562 457 607 431 633

C404 660 381 682 379 684

C378 685 375 688 373 690

C372 692 369 695 367 696

C365 697 363 698 363 699

C363 700 358 704 341 720

L333 728

L333 727

Z

M778 268

L778 267

L777 268

L775 269

L775 269

L774 268

L565 477

C427 616 356 687 356 689

L355 691

L567 480

C683 364 778 268 778 268

Z

M293 720

C293 719 306 704 314 696

C319 691 327 683 331 678

C342 667 473 534 483 524

C487 520 495 513 500 508

C505 502 521 487 534 473

C558 449 599 407 623 383

C629 377 640 366 647 359

L659 347

L660 348

L660 349

L672 337

L684 326

L550 460

C477 534 392 620 362 650

C332 681 307 706 306 706

C306 707 305 708 305 710

C304 712 302 714 299 717

C296 719 294 721 294 721

L293 721

L293 720

Z

M634 376

L661 349

L633 375

C618 390 606 403 606 403

L606 403

L606 403

C606 403 619 391 634 376

Z

M663 343

C663 342 664 341 666 339

L668 337

L669 337

L669 338

L667 341

C666 342 664 343 664 343

L663 343

L663 343

Z

M716 291

C716 289 721 283 724 280

C726 279 734 271 741 264

C760 244 792 212 793 212

L794 212

L794 213

C794 213 776 231 755 253

L716 291

L716 291

Z

M807 210

C810 208 812 205 812 204

L812 203

L814 203

L816 203

L816 203

C816 203 813 206 809 210

L803 215

L807 210

Z

M795 209

C795 209 802 201 811 192

C820 184 828 175 830 173

C833 169 833 169 832 166

C831 164 830 163 829 163

C829 163 818 153 806 141

C788 124 784 119 784 117

C784 114 792 106 795 106

C796 106 807 116 821 130

C839 148 846 154 848 154

C850 154 859 149 859 148

C859 147 861 146 863 145

C866 144 875 135 891 120

C903 108 917 95 921 91

C925 87 929 83 930 82

L930 80

L933 80

C934 80 936 79 938 77

C945 68 947 66 949 66

L950 66

L951 64

C951 62 956 58 960 54

C970 45 974 39 979 30

L982 24

L983 25

C983 28 981 35 978 40

C975 44 949 70 926 91

C921 96 909 107 900 115

C891 124 883 131 882 131

C882 131 877 135 872 141

C856 156 855 156 848 156

C843 155 843 155 819 131

L795 108

L791 111

C789 114 787 116 787 117

C787 118 798 130 812 143

C825 156 836 168 836 169

C836 170 797 210 796 210

L795 210

L795 209

Z

M884 175

L885 173

L884 173

L883 173

L883 170

L882 167

L884 168

C885 168 886 169 887 170

L888 171

L885 174

L883 177

L884 175

Z

M887 167

C886 166 885 165 885 165

L885 164

L887 164

L890 163

L887 163

C883 163 881 160 881 156

C881 152 881 152 900 132

C911 121 922 111 924 110

C926 109 927 108 927 106

C927 103 935 95 941 92

C945 90 946 89 946 88

C946 85 959 72 961 72

C962 72 965 69 968 66

L974 60

L973 59

C970 55 971 53 980 45

C984 40 988 36 988 35

C988 35 989 32 991 30

C993 27 994 24 994 23

C994 20 997 17 1001 17

C1006 17 1014 23 1017 30

C1017 32 1018 37 1018 41

C1018 51 1018 51 1012 53

C1010 53 1006 55 1003 56

C1000 58 996 60 995 61

C994 61 990 64 988 67

C985 71 977 79 970 86

C963 93 957 100 956 102

C955 104 953 106 952 107

C950 108 941 118 939 122

C937 125 934 128 932 128

C931 128 927 131 924 135

C920 139 916 143 915 145

C914 146 913 147 913 148

C913 148 910 151 907 154

L901 160

L901 159

L900 159

L895 164

C890 170 889 170 887 167

Z

M982 19

L983 18

L985 17

L987 17

L987 18

C987 18 984 21 983 21

L982 21

L982 19

Z

"/>

<path fill="#2a2a2d" stroke="none" d="
M13 1023

C13 1022 15 1019 17 1016

C19 1013 23 1008 25 1004

C27 1000 31 995 33 993

C34 991 37 987 38 985

C39 982 42 978 44 975

C46 973 48 969 49 968

C50 965 68 939 70 938

C70 937 71 936 71 935

C71 935 73 932 75 930

C76 927 78 925 78 924

L78 923

L79 923

C79 923 83 918 87 912

C91 907 96 899 99 896

C101 893 106 887 109 882

C112 878 118 871 122 867

C127 863 135 856 140 851

L149 842

L150 846

C150 849 151 851 151 852

C151 852 152 854 152 856

L153 860

L153 856

C153 854 153 851 152 849

C149 843 148 824 149 794

C149 761 149 759 154 747

C156 743 158 737 158 735

C160 727 166 714 173 699

C177 692 182 680 186 673

C189 666 192 659 192 659

C193 658 193 657 193 656

C193 654 209 622 217 609

C218 607 220 604 222 601

C224 598 228 590 231 584

C239 568 246 556 252 548

C255 545 257 542 257 541

C257 539 292 506 304 497

C308 493 318 485 325 478

C338 466 345 461 380 437

C386 432 401 424 423 413

C462 394 477 386 487 379

C491 376 502 368 512 362

C530 349 546 336 564 319

C574 309 575 306 579 299

C581 294 584 287 586 283

C589 278 591 272 592 268

C593 264 595 260 596 257

C598 253 598 252 597 249

C595 241 587 226 583 222

C576 215 551 204 542 204

C537 204 535 195 539 193

C542 192 555 193 559 196

C560 196 562 197 562 197

C563 197 568 199 574 202

C579 205 585 207 585 207

C586 207 588 209 591 212

C595 215 597 219 601 226

C604 232 607 239 607 241

C609 247 609 257 607 262

C607 264 604 270 602 275

C597 291 585 315 579 321

C569 333 541 357 523 369

C515 374 504 382 499 386

C485 396 479 399 436 421

C414 431 394 442 390 445

C382 450 369 460 356 469

C351 472 342 480 336 486

C330 491 321 499 317 502

C300 516 270 545 262 555

C256 562 247 577 241 589

C239 594 235 602 231 608

C225 618 213 639 213 640

C213 640 211 645 208 651

C205 657 200 668 198 674

C195 680 189 693 184 703

C175 722 174 724 169 738

C167 743 165 749 165 751

C161 759 161 761 160 794

C160 821 160 829 161 834

L163 841

L163 835

C163 829 160 832 185 814

C211 795 219 789 224 784

C228 781 234 776 238 773

C242 769 254 758 265 747

L285 728

L286 729

L287 729

L273 744

L259 758

L258 757

L258 757

L247 767

C235 779 220 792 218 794

C217 794 213 797 209 801

C204 804 196 810 190 814

C184 818 176 824 172 827

C165 832 165 832 165 837

C165 840 165 842 166 842

C167 843 176 839 180 836

C181 835 183 834 184 834

C185 834 190 832 194 829

C199 825 202 823 203 823

C203 823 206 821 208 819

C219 811 221 810 223 810

C224 810 226 811 227 812

L228 814

L227 816

C227 816 221 824 215 833

C209 842 204 850 204 851

C204 852 203 854 202 855

C201 857 198 862 196 866

C192 873 190 876 165 901

C140 925 131 934 120 942

C119 943 115 947 111 949

C108 952 105 954 105 954

C104 954 95 959 84 966

C73 972 63 977 62 977

L61 976

L60 975

C60 974 60 972 61 972

C61 971 67 962 74 951

C80 940 86 930 88 929

C89 928 92 924 94 921

C96 918 99 914 101 912

C112 897 117 891 118 889

C119 888 127 880 135 871

C150 856 150 856 150 852

C149 850 149 848 148 848

L147 847

L132 862

C121 873 114 880 107 890

C101 898 93 909 89 915

C81 925 75 934 67 946

C64 950 60 956 58 959

C55 962 53 965 53 965

L53 966

L54 965

L56 965

L53 967

C52 968 50 971 49 974

C48 976 41 986 35 995

L23 1013

L23 1014

L24 1014

L28 1011

C40 1002 61 988 62 988

C62 988 65 986 68 984

C71 982 74 980 74 980

C75 980 77 978 79 977

C82 975 88 970 95 966

C117 951 155 921 164 913

C192 883 198 876 203 870

C211 860 213 857 216 853

C217 850 220 846 223 844

L227 839

L227 839

L226 839

L231 832

C235 827 237 824 237 823

C237 823 245 814 265 790

C270 784 276 778 279 775

L284 771

L284 773

C284 774 281 777 278 781

C268 790 266 793 263 797

C261 800 259 802 257 803

C256 804 255 806 255 806

C255 807 253 809 250 812

C248 814 244 819 243 821

C241 823 233 834 225 845

C217 856 208 868 206 871

C204 875 198 881 194 886

C189 890 186 894 186 895

C186 896 187 898 189 899

C191 900 193 902 193 904

C195 908 203 912 210 915

C215 917 217 917 225 917

C231 916 237 916 238 915

C242 914 250 912 257 910

C260 909 271 909 282 909

C302 909 303 909 322 914

C325 914 329 915 332 915

C334 916 337 917 339 918

C342 920 342 920 346 922

C348 923 350 925 352 927

C354 930 354 931 354 942

C354 948 354 954 353 955

L352 957

L358 963

C364 969 364 969 364 980

C364 993 362 1002 359 1005

C358 1007 356 1009 356 1011

C355 1013 352 1016 350 1018

C346 1022 343 1023 338 1021

C335 1020 335 1019 335 1015

L335 1011

L337 1011

C340 1010 346 1002 350 995

C355 984 354 974 347 970

L345 969

L342 972

C338 977 334 979 329 980

C327 980 323 981 321 983

C316 985 315 986 286 986

C246 987 243 986 242 975

C241 971 241 969 243 965

C244 963 245 960 245 959

C245 959 247 956 249 954

C252 950 255 949 261 947

C269 944 269 944 296 945

C320 946 323 946 327 948

C329 949 332 951 335 952

L339 953

L341 952

C341 950 342 947 342 943

C342 938 342 937 339 934

C335 931 330 928 326 927

C324 926 319 925 315 924

C302 920 297 920 280 920

C263 921 258 921 250 925

C245 927 242 927 226 928

C206 928 207 928 193 922

C187 919 185 916 180 908

L178 905

L176 906

C175 906 172 908 170 911

C162 920 153 928 152 928

C151 928 148 930 146 932

C141 937 123 950 122 950

C122 950 121 951 120 951

C119 953 111 959 110 959

C110 959 106 962 101 965

C96 969 91 972 89 973

L85 975

L85 976

L85 977

L84 977

C83 977 80 979 76 982

C70 986 55 997 55 997

C54 997 32 1012 22 1019

C18 1022 14 1024 14 1024

L13 1024

L13 1023

Z

M107 933

C107 934 109 933 111 931

C113 930 115 929 116 929

C116 929 118 927 120 926

L123 922

L123 923

L124 923

L128 919

L132 916

L131 914

L131 913

L133 913

C135 913 137 912 140 910

C144 907 145 906 144 904

L144 902

L145 903

L147 904

L151 899

L156 894

L155 893

C155 892 154 891 154 891

L154 890

L156 891

L157 892

L158 891

C158 891 160 888 162 886

L166 881

L165 880

C164 880 163 880 162 880

C162 880 160 880 159 879

C158 878 157 877 157 875

C157 870 156 870 152 872

L149 874

L150 875

L150 877

L150 876

L149 875

L147 876

L146 877

L147 878

L148 880

L146 882

L144 883

L144 882

L145 881

L143 880

L142 880

L135 888

C129 894 127 897 128 898

L128 899

L127 899

L125 898

L121 903

C119 906 116 909 115 910

C114 911 113 913 113 914

L113 915

L111 915

L110 916

L110 918

L111 919

L110 919

L109 918

L107 920

C106 921 105 923 105 923

C105 924 105 925 105 926

L105 928

L104 928

L103 927

L101 930

L99 934

L100 935

L101 936

L104 934

C105 934 106 933 107 933

Z

M179 867

C181 865 182 862 182 861

L182 859

L184 858

C186 858 191 850 191 847

C191 846 191 845 190 844

L189 844

L184 847

C181 849 176 853 173 855

L168 858

L169 862

C170 865 174 871 175 871

C176 871 177 869 179 867

Z

M333 727

L332 725

L340 718

C344 714 349 710 351 709

C355 706 355 706 351 704

C348 703 347 703 345 705

C343 707 338 708 336 706

C336 705 336 704 336 701

C337 699 337 696 337 693

L337 689

L335 689

L334 690

L551 473

C671 353 769 255 769 255

C772 255 773 257 774 260

L775 264

L775 260

L775 257

L776 257

C778 257 781 260 781 264

C781 267 775 273 595 453

L409 639

L410 640

L410 641

L621 431

C737 315 832 220 833 220

L835 220

L835 222

L836 224

L836 220

L836 216

L837 216

L838 216

L838 214

C837 213 840 210 847 203

L857 192

L850 185

L842 178

L832 187

C827 193 822 197 822 197

L821 197

L831 186

C837 181 842 176 842 176

C843 176 848 181 854 187

C859 193 865 198 867 198

C868 199 879 209 890 221

C902 232 912 242 913 242

C913 242 915 241 916 240

C917 238 919 237 920 237

L922 236

L923 237

L923 238

L922 238

L921 237

L922 238

L923 239

L924 238

L925 237

L903 214

C880 191 880 191 880 187

L880 182

L878 182

C876 182 872 179 870 176

L870 175

L873 177

C875 179 878 180 879 180

L881 180

L881 181

L882 183

L882 181

C882 180 884 178 886 176

L890 172

L890 173

C890 173 889 175 887 177

C884 180 881 186 881 188

C881 189 891 199 903 212

C917 225 926 235 927 237

C927 239 926 240 923 244

C915 251 916 251 890 225

L867 202

L862 207

C839 229 712 354 702 365

C696 371 689 378 685 381

C673 393 627 438 609 457

C599 467 590 475 588 476

L586 476

L586 478

C586 478 562 503 532 532

C503 562 457 607 431 633

C404 660 381 682 379 684

C378 685 375 688 373 690

C372 692 369 695 367 696

C365 697 363 698 363 699

C363 700 358 704 341 720

L333 728

L333 727

Z

M778 268

L778 267

L777 268

L775 269

L775 269

L774 268

L565 477

C427 616 356 687 356 689

L355 691

L567 480

C683 364 778 268 778 268

Z

M293 720

C293 719 306 704 314 696

C319 691 327 683 331 678

C342 667 473 534 483 524

C487 520 495 513 500 508

C505 502 521 487 534 473

C558 449 599 407 623 383

C629 377 640 366 647 359

L659 347

L660 348

L660 349

L672 337

L684 326

L550 460

C477 534 392 620 362 650

C332 681 307 706 306 706

C306 707 305 708 305 710

C304 712 302 714 299 717

C296 719 294 721 294 721

L293 721

L293 720

Z

M634 376

L661 349

L633 375

C618 390 606 403 606 403

L606 403

L606 403

C606 403 619 391 634 376

Z

M663 343

C663 342 664 341 666 339

L668 337

L669 337

L669 338

L667 341

C666 342 664 343 664 343

L663 343

L663 343

Z

M716 291

C716 289 721 283 724 280

C726 279 734 271 741 264

C760 244 792 212 793 212

L794 212

L794 213

C794 213 776 231 755 253

L716 291

L716 291

Z

M807 210

C810 208 812 205 812 204

L812 203

L814 203

L816 203

L816 203

C816 203 813 206 809 210

L803 215

L807 210

Z

M795 209

C795 209 802 201 811 192

C820 184 828 175 830 173

C833 169 833 169 832 166

C831 164 830 163 829 163

C829 163 818 153 806 141

C788 124 784 119 784 117

C784 114 792 106 795 106

C796 106 807 116 821 130

C839 148 846 154 848 154

C850 154 859 149 859 148

C859 147 861 146 863 145

C866 144 875 135 891 120

C903 108 917 95 921 91

C925 87 929 83 930 82

L930 80

L933 80

C934 80 936 79 938 77

C945 68 947 66 949 66

L950 66

L951 64

C951 62 956 58 960 54

C970 45 974 39 979 30

L982 24

L983 25

C983 28 981 35 978 40

C975 44 949 70 926 91

C921 96 909 107 900 115

C891 124 883 131 882 131

C882 131 877 135 872 141

C856 156 855 156 848 156

C843 155 843 155 819 131

L795 108

L791 111

C789 114 787 116 787 117

C787 118 798 130 812 143

C825 156 836 168 836 169

C836 170 797 210 796 210

L795 210

L795 209

Z

M884 175

L885 173

L884 173

L883 173

L883 170

L882 167

L884 168

C885 168 886 169 887 170

L888 171

L885 174

L883 177

L884 175

Z

M887 167

C886 166 885 165 885 165

L885 164

L887 164

L890 163

L887 163

C883 163 881 160 881 156

C881 152 881 152 900 132

C911 121 922 111 924 110

C926 109 927 108 927 106

C927 103 935 95 941 92

C945 90 946 89 946 88

C946 85 959 72 961 72

C962 72 965 69 968 66

L974 60

L973 59

C970 55 971 53 980 45

C984 40 988 36 988 35

C988 35 989 32 991 30

C993 27 994 24 994 23

C994 20 997 17 1001 17

C1006 17 1014 23 1017 30

C1017 32 1018 37 1018 41

C1018 51 1018 51 1012 53

C1010 53 1006 55 1003 56

C1000 58 996 60 995 61

C994 61 990 64 988 67

C985 71 977 79 970 86

C963 93 957 100 956 102

C955 104 953 106 952 107

C950 108 941 118 939 122

C937 125 934 128 932 128

C931 128 927 131 924 135

C920 139 916 143 915 145

C914 146 913 147 913 148

C913 148 910 151 907 154

L901 160

L901 159

L900 159

L895 164

C890 170 889 170 887 167

Z

M982 19

L983 18

L985 17

L987 17

L987 18

C987 18 984 21 983 21

L982 21

L982 19

Z

"/>

<path fill="#018e52" stroke="none" d="
M337 1021

C335 1020 335 1019 335 1015

L335 1011

L337 1011

C340 1010 346 1002 350 995

C355 984 354 974 347 970

L345 969

L342 972

C338 977 334 979 329 980

C327 980 323 981 321 983

C316 985 315 986 286 986

C246 987 243 986 242 975

C241 971 241 969 243 965

C244 963 245 960 245 959

C245 959 247 956 249 954

C252 950 255 949 261 947

C269 944 269 944 296 945

C320 946 323 946 327 948

C329 949 332 951 335 952

L339 953

L341 952

C341 950 342 947 342 943

C342 938 342 937 339 934

C335 931 330 928 326 927

C324 926 319 925 315 924

C302 920 297 920 280 920

C263 921 258 921 250 925

C245 927 242 927 226 928

C206 928 207 928 193 922

C187 919 185 916 180 908

L178 905

L176 906

L174 906

L174 906

C174 904 177 900 180 896

L183 893

L188 898

C191 900 193 903 194 905

C195 908 203 913 210 915

C215 917 217 917 225 917

C231 916 237 916 238 915

C242 914 250 912 257 910

C260 909 271 909 282 909

C302 909 303 909 322 914

C325 914 329 915 332 915

C334 916 337 917 339 918

C342 920 342 920 346 922

C348 923 350 925 352 927

C354 930 354 931 354 942

C354 948 354 954 353 955

L352 957

L358 963

C364 969 364 969 364 980

C364 993 362 1002 359 1005

C358 1007 356 1009 356 1011

C355 1013 352 1016 350 1018

C347 1021 346 1022 343 1022

C341 1022 338 1021 337 1021

Z

M64 972

C65 970 66 968 66 968

C66 966 68 962 71 958

C72 956 73 954 74 953

C75 951 76 949 77 948

C78 946 79 944 80 943

C80 942 81 940 83 938

C84 937 85 935 85 934

C85 934 86 932 87 931

C90 929 98 918 98 917

C98 917 99 915 101 914

C102 913 104 910 105 909

C106 908 117 896 130 884

L153 861

L154 864

L155 868

L155 864

C155 862 155 859 154 858

C152 853 150 841 149 833

C148 821 149 764 150 759

C151 756 152 751 154 747

C156 743 158 737 158 735

C160 727 166 714 173 699

C177 692 182 680 186 673

C189 666 192 659 192 659

C193 658 193 657 193 656

C193 654 209 622 217 609

C218 607 220 604 222 601

C224 598 228 590 231 584

C239 568 246 556 252 548

C255 545 257 542 257 541

C257 539 292 506 304 497

C308 493 318 485 325 478

C338 466 345 461 380 437

C386 432 401 424 423 413

C462 394 477 386 487 379

C491 376 502 368 512 362

C530 349 546 336 564 319

C574 309 575 306 579 299

C581 294 584 287 586 283

C589 278 591 272 592 268

C593 264 595 260 596 257

C598 253 598 252 597 249

C595 241 587 226 583 222

C576 215 551 204 542 204

C537 204 535 195 539 193

C542 192 555 193 559 196

C560 196 562 197 562 197

C563 197 568 199 574 202

C579 205 585 207 585 207

C586 207 588 209 591 212

C595 215 597 219 601 226

C604 232 607 239 607 241

C609 247 609 257 607 262

C607 264 604 270 602 275

C597 291 585 315 579 321

C569 333 541 357 523 369

C515 374 504 382 499 386

C485 396 479 399 436 421

C414 431 394 442 390 445

C382 450 369 460 356 469

C351 472 342 480 336 486

C330 491 321 499 317 502

C300 516 270 545 262 555

C256 562 247 577 241 589

C239 594 235 602 231 608

C225 618 213 639 213 640

C213 640 211 645 208 651

C205 657 200 668 198 674

C195 680 189 693 184 703

C175 722 174 724 169 738

C167 743 165 749 165 751

C161 759 161 761 160 794

C160 828 160 832 165 849

C166 853 167 858 168 861

C169 864 170 867 171 869

C175 874 172 879 166 879

C160 879 158 878 158 874

L158 870

L155 871

C154 871 151 873 149 874

L146 877

L147 879

L148 880

L146 882

L144 883

L144 882

L145 881

L143 880

L142 880

L135 888

C130 893 127 897 128 898

L128 899

L127 899

C126 899 124 901 122 903

C120 905 117 909 116 910

C111 915 106 922 105 923

C105 924 105 925 105 926

L105 927

L103 927

C101 928 98 931 97 935

L97 938

L99 938

C100 939 101 938 102 938

C103 937 104 936 105 936

L107 935

L107 936

L108 937

L102 940

L96 943

L97 943

C102 943 122 928 122 925

L122 923

L123 923

C123 923 124 923 125 924

L125 925

L129 921

L133 918

L132 917

L132 916

L133 916

C134 916 135 916 136 916

C136 916 139 914 141 911

L146 906

L145 906

C144 905 144 904 144 903

L144 902

L146 903

L148 904

L153 900

L157 895

L156 893

C155 892 154 891 154 891

L154 890

L156 891

L158 892

L160 890

C162 889 163 887 163 886

L163 884

L165 883

L167 883

L167 882

L167 881

L168 881

C170 881 175 875 175 873

C175 873 177 870 179 867

C180 865 182 862 182 861

L182 859

L184 858

C186 858 191 850 191 847

C191 844 189 844 183 848

C180 850 177 852 177 852

C176 852 174 853 173 854

C171 855 170 856 169 856

L168 856

L168 853

C167 851 167 849 167 848

L166 847

L170 845

C173 843 177 841 179 839

C182 837 185 836 185 836

C186 836 190 834 195 831

C199 828 202 826 203 826

C203 826 205 824 208 822

C215 816 222 812 224 812

L225 813

L225 814

C225 815 203 847 202 848

C201 848 201 849 201 850

C201 851 200 854 199 855

C198 857 195 861 193 865

C192 869 188 873 186 876

C183 878 181 881 181 881

C181 883 138 926 130 932

C118 942 105 952 103 954

C101 954 99 956 98 957

C96 957 93 959 91 961

C88 962 85 964 84 965

C82 965 79 967 77 968

C74 970 72 971 71 971

C69 971 68 972 67 973

C65 973 64 974 64 974

L63 974

L64 972

Z

M151 927

C151 927 155 923 158 920

L165 914

L166 914

L166 915

L160 922

C156 925 152 928 152 928

L151 928

L151 927

Z

M132 914

L132 913

L133 913

L134 913

L134 914

L134 915

L133 915

L132 915

L132 914

Z

M350 684

C351 684 351 682 351 680

C350 676 353 674 557 470

L764 263

L764 264

C765 265 769 265 771 264

L772 263

L771 265

L769 267

L767 267

C766 266 353 679 353 682

C353 684 351 686 350 686

L349 686

L350 684

Z

M372 684

L374 682

L373 683

L371 683

L371 682

C371 681 789 264 813 241

L832 223

L832 224

L833 225

L602 456

L371 687

L372 684

Z

M347 662

C352 657 356 653 356 653

L357 653

L349 662

C344 666 340 670 340 670

L339 670

L347 662

Z

M429 579

C439 569 447 561 447 561

L448 561

L431 579

C421 588 413 596 413 596

L412 596

L429 579

Z

M465 543

C471 536 477 531 477 531

L478 531

L467 543

C460 550 454 555 454 555

L453 555

L465 543

Z

M912 247

C911 247 911 246 911 246

L911 245

L915 245

C918 245 919 244 922 241

L926 238

L927 238

L927 239

L923 244

C920 247 918 248 915 248

C914 248 912 248 912 247

Z

M899 235

L891 226

L891 225

L892 225

L901 233

C905 238 909 242 909 242

L909 243

L908 243

C908 243 904 239 899 235

Z

M882 217

L877 212

L877 211

L878 211

L884 216

C887 219 889 222 889 222

L889 223

L888 223

C888 223 885 220 882 217

Z

M884 175

L885 173

L884 173

L883 173

L883 170

L882 167

L884 168

C885 168 886 169 887 170

L888 171

L885 174

L883 177

L884 175

Z

M819 154

L811 146

L811 145

L812 145

L821 153

L829 162

L828 162

C828 162 824 158 819 154

Z

M888 150

C890 147 893 145 893 145

L893 145

L889 150

C886 153 883 155 883 155

L883 155

L888 150

Z

M829 140

L821 132

L821 131

L822 131

L830 139

C834 143 838 147 838 147

L838 148

L837 148

C837 148 833 144 829 140

Z

M930 111

C928 108 929 105 934 100

C937 98 940 95 941 95

L943 94

L941 94

L939 94

L941 93

C942 93 945 93 946 94

C951 96 951 103 946 103

C945 103 942 105 940 108

C936 112 932 113 930 111

Z

M961 93

C961 92 969 84 978 75

C991 61 995 58 1000 55

C1004 53 1007 52 1008 52

L1009 52

L1008 53

C1008 54 1005 55 995 61

C994 61 990 64 988 67

C977 79 962 94 962 94

L961 94

L961 93

Z

"/>

<path fill="#4c4c53" stroke="none" d="
M64 972

C65 970 66 968 66 968

C66 966 68 962 71 958

C72 956 73 954 74 953

C75 951 76 949 77 948

C78 946 79 944 80 943

C80 942 81 940 83 938

C84 937 85 935 85 934

C85 934 86 932 87 931

C90 929 98 918 98 917

C98 917 99 915 101 914

C102 913 104 910 105 909

C106 908 117 896 130 884

L153 861

L154 864

L155 868

L155 865

L155 863

L156 865

C156 866 157 867 157 869

L157 871

L155 871

C154 871 151 872 149 874

L146 877

L147 879

L148 880

L146 882

L144 883

L144 882

L145 881

L143 880

L142 880

L135 888

C130 893 127 897 128 898

L128 899

L127 899

C126 899 124 901 122 903

C120 905 117 909 116 910

C111 915 106 922 105 923

C105 924 105 925 105 926

L105 927

L103 927

C101 928 98 931 97 935

L97 938

L99 938

C100 939 101 938 102 938

C103 937 104 936 105 936

L107 935

L107 936

L108 937

L102 940

L96 943

L97 943

C102 943 122 928 122 925

L122 923

L123 923

C123 923 124 923 125 924

L125 925

L129 921

L133 918

L132 917

L132 916

L133 916

C134 916 135 916 136 916

C136 916 139 914 141 911

L146 906

L145 906

C144 905 144 904 144 903

L144 902

L146 903

L148 904

L153 900

L157 895

L156 893

C155 892 154 891 154 891

L154 890

L156 891

L158 892

L160 890

C162 889 163 887 163 886

L163 884

L165 883

L167 883

L167 882

L167 881

L168 881

C170 881 175 875 175 873

C175 873 177 870 179 867

C180 865 182 862 182 861

L182 859

L184 858

C186 858 191 850 191 847

C191 844 189 844 183 848

C180 850 177 852 177 852

C176 852 174 853 173 854

C171 855 170 856 169 856

L168 856

L168 853

C167 851 167 849 167 848

L166 847

L170 845

C173 843 177 841 179 839

C182 837 185 836 185 836

C186 836 190 834 195 831

C199 828 202 826 203 826

C203 826 205 824 208 822

C215 816 222 812 224 812

L225 813

L225 814

C225 815 203 847 202 848

C201 848 201 849 201 850

C201 851 200 854 199 855

C198 857 195 861 193 865

C192 869 188 873 186 876

C183 878 181 881 181 881

C181 883 138 926 130 932

C118 942 105 952 103 954

C101 954 99 956 98 957

C96 957 93 959 91 961

C88 962 85 964 84 965

C82 965 79 967 77 968

C74 970 72 971 71 971

C69 971 68 972 67 973

C65 973 64 974 64 974

L63 974

L64 972

Z

M256 970

C256 966 257 965 261 962

C265 958 265 958 292 958

C312 958 320 958 321 959

C323 960 325 961 326 961

C332 963 330 968 324 968

L320 968

L320 969

C320 969 318 970 316 971

C313 973 308 973 284 973

L256 974

L256 970

Z

M151 927

C151 927 155 923 158 920

L165 914

L166 914

L166 915

L160 922

C156 925 152 928 152 928

L151 928

L151 927

Z

M132 914

L132 913

L133 913

L134 913

L134 914

L134 915

L133 915

L132 915

L132 914

Z

M174 905

C174 904 177 899 180 896

L183 893

L185 894

C185 895 186 896 186 896

L186 897

L184 897

C181 897 178 900 178 903

L178 905

L176 905

C176 906 175 906 174 906

L174 906

L174 905

Z

M350 684

C351 684 351 682 351 680

C350 676 353 674 557 470

L764 263

L764 264

C765 265 769 265 771 264

L772 263

L771 265

L769 267

L767 267

C766 266 353 679 353 682

C353 684 351 686 350 686

L349 686

L350 684

Z

M372 684

L374 682

L373 683

L371 683

L371 682

C371 681 789 264 813 241

L832 223

L832 224

L833 225

L602 456

L371 687

L372 684

Z

M347 662

C352 657 356 653 356 653

L357 653

L349 662

C344 666 340 670 340 670

L339 670

L347 662

Z

M429 579

C439 569 447 561 447 561

L448 561

L431 579

C421 588 413 596 413 596

L412 596

L429 579

Z

M465 543

C471 536 477 531 477 531

L478 531

L467 543

C460 550 454 555 454 555

L453 555

L465 543

Z

M912 247

C911 247 911 246 911 246

L911 245

L915 245

C918 245 919 244 922 241

L926 238

L927 238

L927 239

L923 244

C920 247 918 248 915 248

C914 248 912 248 912 247

Z

M899 235

L891 226

L891 225

L892 225

L901 233

C905 238 909 242 909 242

L909 243

L908 243

C908 243 904 239 899 235

Z

M882 217

L877 212

L877 211

L878 211

L884 216

C887 219 889 222 889 222

L889 223

L888 223

C888 223 885 220 882 217

Z

M884 175

L885 173

L884 173

L883 173

L883 170

L882 167

L884 168

C885 168 886 169 887 170

L888 171

L885 174

L883 177

L884 175

Z

M819 154

L811 146

L811 145

L812 145

L821 153

L829 162

L828 162

C828 162 824 158 819 154

Z

M888 150

C890 147 893 145 893 145

L893 145

L889 150

C886 153 883 155 883 155

L883 155

L888 150

Z

M829 140

L821 132

L821 131

L822 131

L830 139

C834 143 838 147 838 147

L838 148

L837 148

C837 148 833 144 829 140

Z

M930 111

C928 108 929 105 934 100

C937 98 940 95 941 95

L943 94

L941 94

L939 94

L941 93

C942 93 945 93 946 94

C951 96 951 103 946 103

C945 103 942 105 940 108

C936 112 932 113 930 111

Z

M961 93

C961 92 969 84 978 75

C991 61 995 58 1000 55

C1004 53 1007 52 1008 52

L1009 52

L1008 53

C1008 54 1005 55 995 61

C994 61 990 64 988 67

C977 79 962 94 962 94

L961 94

L961 93

Z

"/>

<path fill="#ff341e" stroke="none" d="
M256 970

C256 966 257 965 261 962

C265 958 265 958 292 958

C312 958 320 958 321 959

C323 960 325 961 326 961

C332 963 330 968 324 968

L320 968

L320 969

C320 969 318 970 316 971

C313 973 308 973 284 973

L256 974

L256 970

Z

M132 914

L132 913

L133 913

L134 913

L134 914

L134 915

L133 915

L132 915

L132 914

Z

M144 880

L144 878

L144 878

C145 878 146 878 146 879

L148 879

L147 880

C147 881 146 881 145 881

L144 881

L144 880

Z

M191 844

L191 843

L192 843

L193 843

L193 844

L193 845

L192 845

L191 845

L191 844

Z

"/>

<path fill="#a7d2bf" stroke="none" d="
M256 970

C256 966 257 965 261 962

C265 958 265 958 292 958

C312 958 320 958 321 959

C323 960 325 961 326 961

C332 963 330 968 324 968

L320 968

L320 969

C320 969 318 970 316 971

C313 973 308 973 284 973

L256 974

L256 970

Z

M132 914

L132 913

L133 913

L134 913

L134 914

L134 915

L133 915

L132 915

L132 914

Z

M144 880

L144 878

L144 878

C145 878 146 878 146 879

L148 879

L147 880

C147 881 146 881 145 881

L144 881

L144 880

Z

M191 844

L191 843

L192 843

L193 843

L193 844

L193 845

L192 845

L191 845

L191 844

Z

"/>

<path fill="#ffffff" stroke="none" d="
M258 970

C258 967 263 962 267 960

C269 959 277 959 292 959

C312 959 314 959 318 961

C321 962 323 963 324 963

L326 964

L325 965

C324 966 323 966 322 966

C321 966 317 967 314 969

C308 972 308 972 283 972

L258 972

L258 970

Z

"/>

</svg>

